<svg id="visual" viewBox="0 0 960 540" width="960" height="540" xmlns="http://www.w3.org/2000/svg" xmlns:xlink="http://www.w3.org/1999/xlink" version="1.1"><rect x="0" y="0" width="960" height="540" fill="#f9f9f9"></rect><defs><linearGradient id="grad1_0" x1="43.8%" y1="0%" x2="100%" y2="100%"><stop offset="14.444444444444446%" stop-color="#f9f9f9" stop-opacity="1"></stop><stop offset="85.55555555555554%" stop-color="#f9f9f9" stop-opacity="1"></stop></linearGradient></defs><defs><linearGradient id="grad2_0" x1="0%" y1="0%" x2="56.3%" y2="100%"><stop offset="14.444444444444446%" stop-color="#f9f9f9" stop-opacity="1"></stop><stop offset="85.55555555555554%" stop-color="#f9f9f9" stop-opacity="1"></stop></linearGradient></defs><g transform="translate(960, 0)"><path d="M0 378C-52.7 375.6 -105.3 373.1 -144.7 349.2C-184 325.3 -209.9 279.9 -244 244C-278 208 -320 181.4 -343.7 142.4C-367.4 103.3 -372.7 51.6 -378 0L0 0Z" fill="#f1f1f1"></path></g><g transform="translate(0, 540)"><path d="M0 -378C35.7 -337.9 71.4 -297.8 117.5 -283.6C163.6 -269.5 220.2 -281.3 262.3 -262.3C304.5 -243.3 332.3 -193.5 349.2 -144.7C366.1 -95.8 372.1 -47.9 378 0L0 0Z" fill="#f1f1f1"></path></g></svg>