<svg id="visual" viewBox="0 0 960 540" width="960" height="540" xmlns="http://www.w3.org/2000/svg" xmlns:xlink="http://www.w3.org/1999/xlink" version="1.1"><path d="M0 55L26.7 74.8C53.3 94.7 106.7 134.3 160 164C213.3 193.7 266.7 213.3 320 199.8C373.3 186.3 426.7 139.7 480 115.3C533.3 91 586.7 89 640 106C693.3 123 746.7 159 800 184.3C853.3 209.7 906.7 224.3 933.3 231.7L960 239L960 0L933.3 0C906.7 0 853.3 0 800 0C746.7 0 693.3 0 640 0C586.7 0 533.3 0 480 0C426.7 0 373.3 0 320 0C266.7 0 213.3 0 160 0C106.7 0 53.3 0 26.7 0L0 0Z" fill="#f4f4f4"></path><path d="M0 185L26.7 216.5C53.3 248 106.7 311 160 328C213.3 345 266.7 316 320 316C373.3 316 426.7 345 480 373C533.3 401 586.7 428 640 422.5C693.3 417 746.7 379 800 384.3C853.3 389.7 906.7 438.3 933.3 462.7L960 487L960 237L933.3 229.7C906.7 222.3 853.3 207.7 800 182.3C746.7 157 693.3 121 640 104C586.7 87 533.3 89 480 113.3C426.7 137.7 373.3 184.3 320 197.8C266.7 211.3 213.3 191.7 160 162C106.7 132.3 53.3 92.7 26.7 72.8L0 53Z" fill="#f1f1f1"></path><path d="M0 428L26.7 425.2C53.3 422.3 106.7 416.7 160 432.8C213.3 449 266.7 487 320 492.5C373.3 498 426.7 471 480 470C533.3 469 586.7 494 640 499.3C693.3 504.7 746.7 490.3 800 488.7C853.3 487 906.7 498 933.3 503.5L960 509L960 485L933.3 460.7C906.7 436.3 853.3 387.7 800 382.3C746.7 377 693.3 415 640 420.5C586.7 426 533.3 399 480 371C426.7 343 373.3 314 320 314C266.7 314 213.3 343 160 326C106.7 309 53.3 246 26.7 214.5L0 183Z" fill="#eaeaea"></path><path d="M0 541L26.7 541C53.3 541 106.7 541 160 541C213.3 541 266.7 541 320 541C373.3 541 426.7 541 480 541C533.3 541 586.7 541 640 541C693.3 541 746.7 541 800 541C853.3 541 906.7 541 933.3 541L960 541L960 507L933.3 501.5C906.7 496 853.3 485 800 486.7C746.7 488.3 693.3 502.7 640 497.3C586.7 492 533.3 467 480 468C426.7 469 373.3 496 320 490.5C266.7 485 213.3 447 160 430.8C106.7 414.7 53.3 420.3 26.7 423.2L0 426Z" fill="#dfdfdf"></path></svg>