<svg id="visual" viewBox="0 0 450 900" width="450" height="900" xmlns="http://www.w3.org/2000/svg" xmlns:xlink="http://www.w3.org/1999/xlink" version="1.1"><rect x="0" y="0" width="450" height="900" fill="#f9f9f9"></rect><defs><linearGradient id="grad1_0" x1="0%" y1="0%" x2="100%" y2="100%"><stop offset="30%" stop-color="#f9f9f9" stop-opacity="1"></stop><stop offset="70%" stop-color="#f9f9f9" stop-opacity="1"></stop></linearGradient></defs><defs><linearGradient id="grad2_0" x1="0%" y1="0%" x2="100%" y2="100%"><stop offset="30%" stop-color="#f9f9f9" stop-opacity="1"></stop><stop offset="70%" stop-color="#f9f9f9" stop-opacity="1"></stop></linearGradient></defs><g transform="translate(450, 0)"><path d="M0 315C-42.2 312 -84.5 308.9 -120.5 291C-156.6 273.1 -186.5 240.3 -207.2 207.2C-227.9 174.1 -239.5 140.6 -255.9 106C-272.4 71.4 -293.7 35.7 -315 0L0 0Z" fill="#f1f1f1"></path></g><g transform="translate(0, 900)"><path d="M0 -315C33.3 -295.1 66.6 -275.1 109.4 -264.2C152.3 -253.3 204.8 -251.5 222.7 -222.7C240.7 -194 224.1 -138.4 233.7 -96.8C243.4 -55.2 279.2 -27.6 315 0L0 0Z" fill="#f1f1f1"></path></g></svg>