<svg id="visual" viewBox="0 0 900 675" width="900" height="675" xmlns="http://www.w3.org/2000/svg" xmlns:xlink="http://www.w3.org/1999/xlink" version="1.1"><rect x="0" y="0" width="900" height="675" fill="#f9f9f9"></rect><defs><linearGradient id="grad1_0" x1="25%" y1="0%" x2="100%" y2="100%"><stop offset="23.333333333333336%" stop-color="#f9f9f9" stop-opacity="1"></stop><stop offset="76.66666666666666%" stop-color="#f9f9f9" stop-opacity="1"></stop></linearGradient></defs><defs><linearGradient id="grad2_0" x1="0%" y1="0%" x2="75%" y2="100%"><stop offset="23.333333333333336%" stop-color="#f9f9f9" stop-opacity="1"></stop><stop offset="76.66666666666666%" stop-color="#f9f9f9" stop-opacity="1"></stop></linearGradient></defs><g transform="translate(900, 0)"><path d="M0 393.8C-39.2 359 -78.5 324.3 -128.6 310.4C-178.7 296.5 -239.7 303.5 -278.4 278.4C-317.2 253.4 -333.7 196.4 -349.2 144.7C-364.7 92.9 -379.2 46.5 -393.7 0L0 0Z" fill="#f1f1f1"></path></g><g transform="translate(0, 675)"><path d="M0 -393.7C47.2 -371 94.3 -348.2 134.3 -324.3C174.3 -300.3 207.2 -275.2 248.2 -248.2C289.2 -221.2 338.2 -192.4 363.8 -150.7C389.4 -109 391.6 -54.5 393.8 0L0 0Z" fill="#f1f1f1"></path></g></svg>