<svg id="visual" viewBox="0 0 675 900" width="675" height="900" xmlns="http://www.w3.org/2000/svg" xmlns:xlink="http://www.w3.org/1999/xlink" version="1.1"><rect x="0" y="0" width="675" height="900" fill="#f9f9f9"></rect><defs><linearGradient id="grad1_0" x1="0%" y1="0%" x2="100%" y2="100%"><stop offset="30%" stop-color="#f9f9f9" stop-opacity="1"></stop><stop offset="70%" stop-color="#f9f9f9" stop-opacity="1"></stop></linearGradient></defs><defs><linearGradient id="grad2_0" x1="0%" y1="0%" x2="100%" y2="100%"><stop offset="30%" stop-color="#f9f9f9" stop-opacity="1"></stop><stop offset="70%" stop-color="#f9f9f9" stop-opacity="1"></stop></linearGradient></defs><g transform="translate(675, 0)"><path d="M0 393.8C-37.6 358 -75.2 322.2 -128.2 309.5C-181.2 296.8 -249.5 307.3 -278.4 278.4C-307.3 249.5 -296.8 181.2 -309.5 128.2C-322.2 75.2 -358 37.6 -393.7 0L0 0Z" fill="#f1f1f1"></path></g><g transform="translate(0, 900)"><path d="M0 -393.7C34 -349.9 67.9 -306 122.1 -294.7C176.2 -283.4 250.5 -304.7 278.4 -278.4C306.3 -252.1 287.8 -178.3 299.3 -124C310.8 -69.7 352.3 -34.8 393.8 0L0 0Z" fill="#f1f1f1"></path></g></svg>